<svg xmlns="http://www.w3.org/2000/svg" xmlns:xlink="http://www.w3.org/1999/xlink" width="1080" zoomAndPan="magnify" viewBox="0 0 810 809.999993" height="1080" preserveAspectRatio="xMidYMid meet" version="1.0"><defs><clipPath id="47e07c6978"><path d="M 0 0.359375 L 810 0.359375 L 810 6 L 0 6 Z M 0 0.359375 " clip-rule="nonzero"/></clipPath><clipPath id="15b484fe88"><path d="M 414 96 L 476 96 L 476 101.398438 L 414 101.398438 Z M 414 96 " clip-rule="nonzero"/></clipPath><clipPath id="43eb2a38ab"><rect x="0" width="810" y="0" height="102"/></clipPath><clipPath id="8a40b33d73"><path d="M 542 491 L 551 491 L 551 504 L 542 504 Z M 542 491 " clip-rule="nonzero"/></clipPath><clipPath id="061ef4d286"><path d="M 542.273438 491.808594 L 550.429688 491.347656 L 551.109375 503.386719 L 542.953125 503.847656 Z M 542.273438 491.808594 " clip-rule="nonzero"/></clipPath><clipPath id="bd9bb91348"><path d="M 546.351562 491.578125 C 547.433594 491.515625 548.492188 491.886719 549.300781 492.609375 C 550.109375 493.332031 550.597656 494.34375 550.65625 495.425781 L 550.875 499.292969 C 550.9375 500.375 550.566406 501.4375 549.84375 502.246094 C 549.125 503.050781 548.109375 503.539062 547.03125 503.601562 C 545.949219 503.664062 544.886719 503.292969 544.078125 502.570312 C 543.273438 501.847656 542.785156 500.835938 542.722656 499.753906 L 542.503906 495.886719 C 542.441406 494.804688 542.8125 493.742188 543.535156 492.933594 C 544.257812 492.128906 545.269531 491.640625 546.351562 491.578125 Z M 546.351562 491.578125 " clip-rule="nonzero"/></clipPath><clipPath id="f8b0b3e84c"><path d="M 0.398438 0.28125 L 9 0.28125 L 9 12.761719 L 0.398438 12.761719 Z M 0.398438 0.28125 " clip-rule="nonzero"/></clipPath><clipPath id="072ded1e1f"><path d="M 0.273438 0.808594 L 8.429688 0.347656 L 9.109375 12.386719 L 0.953125 12.847656 Z M 0.273438 0.808594 " clip-rule="nonzero"/></clipPath><clipPath id="401b3c02ef"><path d="M 4.351562 0.578125 C 5.433594 0.515625 6.492188 0.886719 7.300781 1.609375 C 8.109375 2.332031 8.597656 3.34375 8.65625 4.425781 L 8.875 8.292969 C 8.9375 9.375 8.566406 10.4375 7.84375 11.246094 C 7.125 12.050781 6.109375 12.539062 5.03125 12.601562 C 3.949219 12.664062 2.886719 12.292969 2.078125 11.570312 C 1.273438 10.847656 0.785156 9.835938 0.722656 8.753906 L 0.503906 4.886719 C 0.441406 3.804688 0.8125 2.742188 1.535156 1.933594 C 2.257812 1.128906 3.269531 0.640625 4.351562 0.578125 Z M 4.351562 0.578125 " clip-rule="nonzero"/></clipPath><clipPath id="1bab65eabc"><rect x="0" width="9" y="0" height="13"/></clipPath><clipPath id="883fc20d2e"><path d="M 555 490 L 564 490 L 564 503 L 555 503 Z M 555 490 " clip-rule="nonzero"/></clipPath><clipPath id="158a3f37ab"><path d="M 555.339844 490.496094 L 563.496094 490.035156 L 564.175781 502.074219 L 556.019531 502.535156 Z M 555.339844 490.496094 " clip-rule="nonzero"/></clipPath><clipPath id="26c7a1a4ab"><path d="M 559.417969 490.265625 C 560.5 490.203125 561.558594 490.574219 562.367188 491.296875 C 563.175781 492.019531 563.664062 493.03125 563.722656 494.113281 L 563.941406 497.980469 C 564.003906 499.0625 563.632812 500.125 562.910156 500.933594 C 562.191406 501.738281 561.175781 502.226562 560.097656 502.289062 C 559.015625 502.351562 557.953125 501.980469 557.144531 501.257812 C 556.339844 500.535156 555.851562 499.523438 555.789062 498.441406 L 555.570312 494.574219 C 555.511719 493.492188 555.878906 492.429688 556.601562 491.621094 C 557.324219 490.816406 558.335938 490.328125 559.417969 490.265625 Z M 559.417969 490.265625 " clip-rule="nonzero"/></clipPath><clipPath id="27d2a01878"><path d="M 0.359375 0.078125 L 9 0.078125 L 9 12.558594 L 0.359375 12.558594 Z M 0.359375 0.078125 " clip-rule="nonzero"/></clipPath><clipPath id="fb5d2360d9"><path d="M 0.339844 0.496094 L 8.496094 0.0351562 L 9.175781 12.074219 L 1.019531 12.535156 Z M 0.339844 0.496094 " clip-rule="nonzero"/></clipPath><clipPath id="48939679af"><path d="M 4.417969 0.265625 C 5.5 0.203125 6.558594 0.574219 7.367188 1.296875 C 8.175781 2.019531 8.664062 3.03125 8.722656 4.113281 L 8.941406 7.980469 C 9.003906 9.0625 8.632812 10.125 7.910156 10.933594 C 7.191406 11.738281 6.175781 12.226562 5.097656 12.289062 C 4.015625 12.351562 2.953125 11.980469 2.144531 11.257812 C 1.339844 10.535156 0.851562 9.523438 0.789062 8.441406 L 0.570312 4.574219 C 0.511719 3.492188 0.878906 2.429688 1.601562 1.621094 C 2.324219 0.816406 3.335938 0.328125 4.417969 0.265625 Z M 4.417969 0.265625 " clip-rule="nonzero"/></clipPath><clipPath id="1d0812e980"><rect x="0" width="9" y="0" height="13"/></clipPath><clipPath id="276295f94b"><path d="M 569 488 L 578 488 L 578 501 L 569 501 Z M 569 488 " clip-rule="nonzero"/></clipPath><clipPath id="b762d298ca"><path d="M 569.074219 489.132812 L 577.226562 488.671875 L 577.90625 500.710938 L 569.753906 501.171875 Z M 569.074219 489.132812 " clip-rule="nonzero"/></clipPath><clipPath id="3e28f8e036"><path d="M 573.148438 488.902344 C 574.230469 488.84375 575.292969 489.214844 576.101562 489.933594 C 576.90625 490.65625 577.394531 491.667969 577.457031 492.75 L 577.675781 496.621094 C 577.734375 497.699219 577.367188 498.761719 576.644531 499.570312 C 575.921875 500.378906 574.910156 500.867188 573.828125 500.925781 C 572.746094 500.988281 571.6875 500.617188 570.878906 499.894531 C 570.070312 499.171875 569.582031 498.160156 569.523438 497.078125 L 569.304688 493.210938 C 569.242188 492.128906 569.613281 491.066406 570.335938 490.261719 C 571.054688 489.453125 572.070312 488.964844 573.148438 488.902344 Z M 573.148438 488.902344 " clip-rule="nonzero"/></clipPath><clipPath id="c187be84ac"><path d="M 0.0390625 0.640625 L 8.921875 0.640625 L 8.921875 13 L 0.0390625 13 Z M 0.0390625 0.640625 " clip-rule="nonzero"/></clipPath><clipPath id="b5264a3a63"><path d="M 0.0742188 1.132812 L 8.226562 0.671875 L 8.90625 12.710938 L 0.753906 13.171875 Z M 0.0742188 1.132812 " clip-rule="nonzero"/></clipPath><clipPath id="b5b094b959"><path d="M 4.148438 0.902344 C 5.230469 0.84375 6.292969 1.214844 7.101562 1.933594 C 7.90625 2.65625 8.394531 3.667969 8.457031 4.75 L 8.675781 8.621094 C 8.734375 9.699219 8.367188 10.761719 7.644531 11.570312 C 6.921875 12.378906 5.910156 12.867188 4.828125 12.925781 C 3.746094 12.988281 2.6875 12.617188 1.878906 11.894531 C 1.070312 11.171875 0.582031 10.160156 0.523438 9.078125 L 0.304688 5.210938 C 0.242188 4.128906 0.613281 3.066406 1.335938 2.261719 C 2.054688 1.453125 3.070312 0.964844 4.148438 0.902344 Z M 4.148438 0.902344 " clip-rule="nonzero"/></clipPath><clipPath id="ee42e0396e"><rect x="0" width="9" y="0" height="13"/></clipPath><clipPath id="a960042fb7"><path d="M 583 486 L 592 486 L 592 500 L 583 500 Z M 583 486 " clip-rule="nonzero"/></clipPath><clipPath id="a8e7687b2d"><path d="M 582.804688 487.234375 L 590.957031 486.773438 L 591.640625 498.8125 L 583.484375 499.273438 Z M 582.804688 487.234375 " clip-rule="nonzero"/></clipPath><clipPath id="21d5a14679"><path d="M 586.882812 487.003906 C 587.964844 486.945312 589.023438 487.3125 589.832031 488.035156 C 590.640625 488.757812 591.128906 489.769531 591.1875 490.851562 L 591.40625 494.71875 C 591.46875 495.800781 591.097656 496.863281 590.375 497.671875 C 589.65625 498.476562 588.640625 498.964844 587.5625 499.027344 C 586.480469 499.089844 585.417969 498.71875 584.609375 497.996094 C 583.804688 497.273438 583.316406 496.261719 583.253906 495.179688 L 583.035156 491.3125 C 582.972656 490.230469 583.34375 489.167969 584.066406 488.363281 C 584.789062 487.554688 585.800781 487.066406 586.882812 487.003906 Z M 586.882812 487.003906 " clip-rule="nonzero"/></clipPath><clipPath id="ceb01e4f1d"><path d="M 0 0.71875 L 8.601562 0.71875 L 8.601562 13.199219 L 0 13.199219 Z M 0 0.71875 " clip-rule="nonzero"/></clipPath><clipPath id="f7543f3bfc"><path d="M -0.195312 1.234375 L 7.957031 0.773438 L 8.640625 12.8125 L 0.484375 13.273438 Z M -0.195312 1.234375 " clip-rule="nonzero"/></clipPath><clipPath id="e6b1577cd1"><path d="M 3.882812 1.003906 C 4.964844 0.945312 6.023438 1.3125 6.832031 2.035156 C 7.640625 2.757812 8.128906 3.769531 8.1875 4.851562 L 8.40625 8.71875 C 8.46875 9.800781 8.097656 10.863281 7.375 11.671875 C 6.65625 12.476562 5.640625 12.964844 4.5625 13.027344 C 3.480469 13.089844 2.417969 12.71875 1.609375 11.996094 C 0.804688 11.273438 0.316406 10.261719 0.253906 9.179688 L 0.0351562 5.3125 C -0.0273438 4.230469 0.34375 3.167969 1.066406 2.363281 C 1.789062 1.554688 2.800781 1.066406 3.882812 1.003906 Z M 3.882812 1.003906 " clip-rule="nonzero"/></clipPath><clipPath id="7a81e3fcf3"><rect x="0" width="9" y="0" height="14"/></clipPath><clipPath id="77af80d829"><path d="M 596 485 L 606 485 L 606 498 L 596 498 Z M 596 485 " clip-rule="nonzero"/></clipPath><clipPath id="bc236918d4"><path d="M 596.539062 485.566406 L 604.691406 485.105469 L 605.371094 497.144531 L 597.21875 497.605469 Z M 596.539062 485.566406 " clip-rule="nonzero"/></clipPath><clipPath id="c758613bf3"><path d="M 600.613281 485.335938 C 601.695312 485.277344 602.757812 485.648438 603.566406 486.367188 C 604.371094 487.089844 604.859375 488.101562 604.921875 489.183594 L 605.140625 493.054688 C 605.199219 494.132812 604.828125 495.195312 604.109375 496.003906 C 603.386719 496.8125 602.375 497.296875 601.292969 497.359375 C 600.210938 497.421875 599.152344 497.050781 598.34375 496.328125 C 597.535156 495.605469 597.046875 494.59375 596.984375 493.511719 L 596.769531 489.644531 C 596.707031 488.5625 597.078125 487.5 597.800781 486.695312 C 598.519531 485.886719 599.535156 485.398438 600.613281 485.335938 Z M 600.613281 485.335938 " clip-rule="nonzero"/></clipPath><clipPath id="e076b240b1"><path d="M 0.640625 0.0390625 L 9.28125 0.0390625 L 9.28125 12.519531 L 0.640625 12.519531 Z M 0.640625 0.0390625 " clip-rule="nonzero"/></clipPath><clipPath id="ad852eb750"><path d="M 0.539062 0.566406 L 8.691406 0.105469 L 9.371094 12.144531 L 1.21875 12.605469 Z M 0.539062 0.566406 " clip-rule="nonzero"/></clipPath><clipPath id="594d150657"><path d="M 4.613281 0.335938 C 5.695312 0.277344 6.757812 0.648438 7.566406 1.367188 C 8.371094 2.089844 8.859375 3.101562 8.921875 4.183594 L 9.140625 8.054688 C 9.199219 9.132812 8.828125 10.195312 8.109375 11.003906 C 7.386719 11.8125 6.375 12.296875 5.292969 12.359375 C 4.210938 12.421875 3.152344 12.050781 2.34375 11.328125 C 1.535156 10.605469 1.046875 9.59375 0.984375 8.511719 L 0.769531 4.644531 C 0.707031 3.5625 1.078125 2.5 1.800781 1.695312 C 2.519531 0.886719 3.535156 0.398438 4.613281 0.335938 Z M 4.613281 0.335938 " clip-rule="nonzero"/></clipPath><clipPath id="681b878c08"><rect x="0" width="10" y="0" height="13"/></clipPath><clipPath id="3b77cdf913"><path d="M 610 484 L 619 484 L 619 497 L 610 497 Z M 610 484 " clip-rule="nonzero"/></clipPath><clipPath id="25c681b975"><path d="M 610.269531 484.253906 L 618.421875 483.792969 L 619.101562 495.832031 L 610.949219 496.292969 Z M 610.269531 484.253906 " clip-rule="nonzero"/></clipPath><clipPath id="6cbca7bb17"><path d="M 614.347656 484.023438 C 615.429688 483.964844 616.488281 484.335938 617.296875 485.054688 C 618.105469 485.777344 618.59375 486.789062 618.652344 487.871094 L 618.871094 491.738281 C 618.933594 492.820312 618.5625 493.882812 617.839844 494.691406 C 617.121094 495.496094 616.105469 495.984375 615.027344 496.046875 C 613.945312 496.109375 612.882812 495.738281 612.074219 495.015625 C 611.269531 494.292969 610.78125 493.28125 610.71875 492.199219 L 610.5 488.332031 C 610.4375 487.25 610.808594 486.1875 611.53125 485.382812 C 612.253906 484.574219 613.265625 484.085938 614.347656 484.023438 Z M 614.347656 484.023438 " clip-rule="nonzero"/></clipPath><clipPath id="5f12edbb2a"><path d="M 0.320312 0 L 8.960938 0 L 8.960938 12.320312 L 0.320312 12.320312 Z M 0.320312 0 " clip-rule="nonzero"/></clipPath><clipPath id="fe003f195d"><path d="M 0.269531 0.253906 L 8.421875 -0.207031 L 9.101562 11.832031 L 0.949219 12.292969 Z M 0.269531 0.253906 " clip-rule="nonzero"/></clipPath><clipPath id="9ce8de6c3a"><path d="M 4.347656 0.0234375 C 5.429688 -0.0351562 6.488281 0.335938 7.296875 1.054688 C 8.105469 1.777344 8.59375 2.789062 8.652344 3.871094 L 8.871094 7.738281 C 8.933594 8.820312 8.5625 9.882812 7.839844 10.691406 C 7.121094 11.496094 6.105469 11.984375 5.027344 12.046875 C 3.945312 12.109375 2.882812 11.738281 2.074219 11.015625 C 1.269531 10.292969 0.78125 9.28125 0.71875 8.199219 L 0.5 4.332031 C 0.4375 3.25 0.808594 2.1875 1.53125 1.382812 C 2.253906 0.574219 3.265625 0.0859375 4.347656 0.0234375 Z M 4.347656 0.0234375 " clip-rule="nonzero"/></clipPath><clipPath id="981832adda"><rect x="0" width="9" y="0" height="13"/></clipPath><clipPath id="ebb0c5e7c6"><path d="M 624 481 L 633 481 L 633 494 L 624 494 Z M 624 481 " clip-rule="nonzero"/></clipPath><clipPath id="e397647615"><path d="M 624.003906 482.089844 L 632.15625 481.628906 L 632.835938 493.667969 L 624.683594 494.128906 Z M 624.003906 482.089844 " clip-rule="nonzero"/></clipPath><clipPath id="2048c1c4b4"><path d="M 628.078125 481.859375 C 629.160156 481.796875 630.222656 482.167969 631.027344 482.890625 C 631.835938 483.609375 632.324219 484.625 632.386719 485.703125 L 632.605469 489.574219 C 632.664062 490.65625 632.292969 491.714844 631.574219 492.523438 C 630.851562 493.332031 629.839844 493.820312 628.757812 493.882812 C 627.675781 493.941406 626.617188 493.570312 625.808594 492.851562 C 625 492.128906 624.511719 491.117188 624.449219 490.035156 L 624.234375 486.164062 C 624.171875 485.082031 624.542969 484.023438 625.265625 483.214844 C 625.984375 482.40625 626.996094 481.917969 628.078125 481.859375 Z M 628.078125 481.859375 " clip-rule="nonzero"/></clipPath><clipPath id="2070440ba3"><path d="M 0 0.679688 L 8.878906 0.679688 L 8.878906 13 L 0 13 Z M 0 0.679688 " clip-rule="nonzero"/></clipPath><clipPath id="ca2acee63e"><path d="M 0.00390625 1.089844 L 8.15625 0.628906 L 8.835938 12.667969 L 0.683594 13.128906 Z M 0.00390625 1.089844 " clip-rule="nonzero"/></clipPath><clipPath id="68f5528e80"><path d="M 4.078125 0.859375 C 5.160156 0.796875 6.222656 1.167969 7.027344 1.890625 C 7.835938 2.609375 8.324219 3.625 8.386719 4.703125 L 8.605469 8.574219 C 8.664062 9.65625 8.292969 10.714844 7.574219 11.523438 C 6.851562 12.332031 5.839844 12.820312 4.757812 12.882812 C 3.675781 12.941406 2.617188 12.570312 1.808594 11.851562 C 1 11.128906 0.511719 10.117188 0.449219 9.035156 L 0.234375 5.164062 C 0.171875 4.082031 0.542969 3.023438 1.265625 2.214844 C 1.984375 1.40625 2.996094 0.917969 4.078125 0.859375 Z M 4.078125 0.859375 " clip-rule="nonzero"/></clipPath><clipPath id="5a5b6d67d8"><rect x="0" width="9" y="0" height="13"/></clipPath><clipPath id="fdad648cea"><path d="M 637 480 L 647 480 L 647 493 L 637 493 Z M 637 480 " clip-rule="nonzero"/></clipPath><clipPath id="47edc3a9cf"><path d="M 637.734375 480.992188 L 645.886719 480.53125 L 646.566406 492.570312 L 638.414062 493.03125 Z M 637.734375 480.992188 " clip-rule="nonzero"/></clipPath><clipPath id="e581fb816c"><path d="M 641.8125 480.761719 C 642.894531 480.703125 643.953125 481.074219 644.761719 481.792969 C 645.570312 482.515625 646.058594 483.527344 646.117188 484.609375 L 646.335938 488.480469 C 646.398438 489.558594 646.027344 490.621094 645.304688 491.429688 C 644.585938 492.238281 643.570312 492.726562 642.492188 492.785156 C 641.410156 492.847656 640.347656 492.476562 639.539062 491.753906 C 638.734375 491.03125 638.246094 490.019531 638.183594 488.9375 L 637.964844 485.070312 C 637.902344 483.988281 638.273438 482.925781 638.996094 482.121094 C 639.71875 481.3125 640.730469 480.824219 641.8125 480.761719 Z M 641.8125 480.761719 " clip-rule="nonzero"/></clipPath><clipPath id="90e87db271"><path d="M 0.679688 0.480469 L 9.558594 0.480469 L 9.558594 12.960938 L 0.679688 12.960938 Z M 0.679688 0.480469 " clip-rule="nonzero"/></clipPath><clipPath id="8135bced5f"><path d="M 0.734375 0.992188 L 8.886719 0.53125 L 9.566406 12.570312 L 1.414062 13.03125 Z M 0.734375 0.992188 " clip-rule="nonzero"/></clipPath><clipPath id="68f05292f7"><path d="M 4.8125 0.761719 C 5.894531 0.703125 6.953125 1.074219 7.761719 1.792969 C 8.570312 2.515625 9.058594 3.527344 9.117188 4.609375 L 9.335938 8.480469 C 9.398438 9.558594 9.027344 10.621094 8.304688 11.429688 C 7.585938 12.238281 6.570312 12.726562 5.492188 12.785156 C 4.410156 12.847656 3.347656 12.476562 2.539062 11.753906 C 1.734375 11.03125 1.246094 10.019531 1.183594 8.9375 L 0.964844 5.070312 C 0.902344 3.988281 1.273438 2.925781 1.996094 2.121094 C 2.71875 1.3125 3.730469 0.824219 4.8125 0.761719 Z M 4.8125 0.761719 " clip-rule="nonzero"/></clipPath><clipPath id="7ba1a9f3fa"><rect x="0" width="10" y="0" height="13"/></clipPath><clipPath id="1499ce4bec"><path d="M 393 325 L 419 325 L 419 352 L 393 352 Z M 393 325 " clip-rule="nonzero"/></clipPath><clipPath id="415e109d8d"><path d="M 393.066406 329.335938 L 414.496094 324.828125 L 419.25 347.429688 L 397.820312 351.9375 Z M 393.066406 329.335938 " clip-rule="nonzero"/></clipPath><clipPath id="1ccf165e43"><path d="M 394.535156 329.027344 L 413.027344 325.136719 C 413.839844 324.964844 414.632812 325.484375 414.804688 326.296875 L 418.9375 345.9375 C 419.105469 346.746094 418.589844 347.542969 417.777344 347.714844 L 399.28125 351.605469 C 398.472656 351.773438 397.675781 351.257812 397.507812 350.445312 L 393.375 330.804688 C 393.203125 329.992188 393.722656 329.199219 394.535156 329.027344 Z M 394.535156 329.027344 " clip-rule="nonzero"/></clipPath><clipPath id="513b4cc976"><path d="M 0.121094 0 L 26 0 L 26 26.839844 L 0.121094 26.839844 Z M 0.121094 0 " clip-rule="nonzero"/></clipPath><clipPath id="5edfffe09b"><path d="M 0.0664062 4.335938 L 21.496094 -0.171875 L 26.25 22.429688 L 4.820312 26.9375 Z M 0.0664062 4.335938 " clip-rule="nonzero"/></clipPath><clipPath id="8ebb8960ff"><path d="M 1.535156 4.027344 L 20.027344 0.136719 C 20.839844 -0.0351562 21.632812 0.484375 21.804688 1.296875 L 25.9375 20.9375 C 26.105469 21.746094 25.589844 22.542969 24.777344 22.714844 L 6.28125 26.605469 C 5.472656 26.773438 4.675781 26.257812 4.507812 25.445312 L 0.375 5.804688 C 0.203125 4.992188 0.722656 4.199219 1.535156 4.027344 Z M 1.535156 4.027344 " clip-rule="nonzero"/></clipPath><clipPath id="b6fb715752"><rect x="0" width="26" y="0" height="27"/></clipPath><clipPath id="c16366ffbd"><path d="M 420 317 L 455 317 L 455 346 L 420 346 Z M 420 317 " clip-rule="nonzero"/></clipPath><clipPath id="631b99e220"><path d="M 419.898438 322.992188 L 449.617188 316.742188 L 454.367188 339.316406 L 424.648438 345.570312 Z M 419.898438 322.992188 " clip-rule="nonzero"/></clipPath><clipPath id="964acb29e9"><path d="M 421.367188 322.683594 L 448.148438 317.050781 C 448.957031 316.878906 449.753906 317.398438 449.925781 318.210938 L 454.058594 337.851562 C 454.226562 338.660156 453.707031 339.457031 452.898438 339.625 L 426.117188 345.261719 C 425.304688 345.429688 424.511719 344.914062 424.339844 344.101562 L 420.207031 324.460938 C 420.035156 323.648438 420.554688 322.855469 421.367188 322.683594 Z M 421.367188 322.683594 " clip-rule="nonzero"/></clipPath><clipPath id="80c93daac7"><path d="M 0 0 L 34.320312 0 L 34.320312 28.601562 L 0 28.601562 Z M 0 0 " clip-rule="nonzero"/></clipPath><clipPath id="6736618959"><path d="M -0.101562 5.992188 L 29.617188 -0.257812 L 34.367188 22.316406 L 4.648438 28.570312 Z M -0.101562 5.992188 " clip-rule="nonzero"/></clipPath><clipPath id="91933d124d"><path d="M 1.367188 5.683594 L 28.148438 0.0507812 C 28.957031 -0.121094 29.753906 0.398438 29.925781 1.210938 L 34.058594 20.851562 C 34.226562 21.660156 33.707031 22.457031 32.898438 22.625 L 6.117188 28.261719 C 5.304688 28.429688 4.511719 27.914062 4.339844 27.101562 L 0.207031 7.460938 C 0.0351562 6.648438 0.554688 5.855469 1.367188 5.683594 Z M 1.367188 5.683594 " clip-rule="nonzero"/></clipPath><clipPath id="7607180c11"><rect x="0" width="35" y="0" height="29"/></clipPath><clipPath id="45e907749a"><path d="M 455 307 L 496 307 L 496 338 L 455 338 Z M 455 307 " clip-rule="nonzero"/></clipPath><clipPath id="633050b1db"><path d="M 455.527344 315.105469 L 490.785156 307.6875 L 495.566406 330.421875 L 460.3125 337.839844 Z M 455.527344 315.105469 " clip-rule="nonzero"/></clipPath><clipPath id="c2939e0680"><path d="M 456.996094 314.796875 L 489.316406 307.996094 C 490.125 307.828125 490.921875 308.34375 491.089844 309.15625 L 495.257812 328.953125 C 495.425781 329.765625 494.90625 330.558594 494.097656 330.730469 L 461.777344 337.53125 C 460.96875 337.699219 460.171875 337.179688 460.003906 336.371094 L 455.835938 316.570312 C 455.667969 315.761719 456.1875 314.964844 456.996094 314.796875 Z M 456.996094 314.796875 " clip-rule="nonzero"/></clipPath><clipPath id="0af2cf8bf7"><path d="M 0.519531 0.679688 L 40.601562 0.679688 L 40.601562 30.921875 L 0.519531 30.921875 Z M 0.519531 0.679688 " clip-rule="nonzero"/></clipPath><clipPath id="4e6e2dac9a"><path d="M 0.527344 8.105469 L 35.785156 0.6875 L 40.566406 23.421875 L 5.3125 30.839844 Z M 0.527344 8.105469 " clip-rule="nonzero"/></clipPath><clipPath id="22d8abbace"><path d="M 1.996094 7.796875 L 34.316406 0.996094 C 35.125 0.828125 35.921875 1.34375 36.089844 2.15625 L 40.257812 21.953125 C 40.425781 22.765625 39.90625 23.558594 39.097656 23.730469 L 6.777344 30.53125 C 5.96875 30.699219 5.171875 30.179688 5.003906 29.371094 L 0.835938 9.570312 C 0.667969 8.761719 1.1875 7.964844 1.996094 7.796875 Z M 1.996094 7.796875 " clip-rule="nonzero"/></clipPath><clipPath id="a9db5effae"><rect x="0" width="41" y="0" height="31"/></clipPath><clipPath id="769cb4a9f8"><path d="M 565 312 L 612 312 L 612 341 L 565 341 Z M 565 312 " clip-rule="nonzero"/></clipPath><clipPath id="410f21b02f"><path d="M 568.554688 312.519531 L 611.972656 318.492188 L 608.875 340.996094 L 565.457031 335.019531 Z M 568.554688 312.519531 " clip-rule="nonzero"/></clipPath><clipPath id="6f2d80c060"><path d="M 570.039062 312.722656 L 610.480469 318.289062 C 611.304688 318.402344 611.875 319.160156 611.765625 319.980469 L 609.074219 339.507812 C 608.964844 340.328125 608.207031 340.902344 607.386719 340.789062 L 566.945312 335.222656 C 566.121094 335.109375 565.550781 334.351562 565.660156 333.53125 L 568.351562 314.003906 C 568.460938 313.183594 569.21875 312.609375 570.039062 312.722656 Z M 570.039062 312.722656 " clip-rule="nonzero"/></clipPath><clipPath id="a8db4e35aa"><path d="M 0.441406 0.480469 L 47 0.480469 L 47 29 L 0.441406 29 Z M 0.441406 0.480469 " clip-rule="nonzero"/></clipPath><clipPath id="a98607cf55"><path d="M 3.554688 0.519531 L 46.972656 6.492188 L 43.875 28.996094 L 0.457031 23.019531 Z M 3.554688 0.519531 " clip-rule="nonzero"/></clipPath><clipPath id="4a430f5419"><path d="M 5.039062 0.722656 L 45.480469 6.289062 C 46.304688 6.402344 46.875 7.160156 46.765625 7.980469 L 44.074219 27.507812 C 43.964844 28.328125 43.207031 28.902344 42.386719 28.789062 L 1.945312 23.222656 C 1.121094 23.109375 0.550781 22.351562 0.660156 21.53125 L 3.351562 2.003906 C 3.460938 1.183594 4.21875 0.609375 5.039062 0.722656 Z M 5.039062 0.722656 " clip-rule="nonzero"/></clipPath><clipPath id="9589f7139c"><rect x="0" width="47" y="0" height="29"/></clipPath><clipPath id="a619803e58"><path d="M 509 305 L 557 305 L 557 335 L 509 335 Z M 509 305 " clip-rule="nonzero"/></clipPath><clipPath id="e1df6a4410"><path d="M 512.488281 304.992188 L 556.792969 311.089844 L 553.597656 334.28125 L 509.296875 328.183594 Z M 512.488281 304.992188 " clip-rule="nonzero"/></clipPath><clipPath id="2a10166762"><path d="M 513.972656 305.195312 L 555.21875 310.871094 C 556.039062 310.984375 556.613281 311.742188 556.5 312.5625 L 553.71875 332.785156 C 553.605469 333.605469 552.847656 334.179688 552.027344 334.066406 L 510.78125 328.390625 C 509.960938 328.277344 509.386719 327.519531 509.5 326.699219 L 512.285156 306.476562 C 512.398438 305.65625 513.152344 305.082031 513.972656 305.195312 Z M 513.972656 305.195312 " clip-rule="nonzero"/></clipPath><clipPath id="c47c97e39a"><path d="M 0.28125 0.0390625 L 47.800781 0.0390625 L 47.800781 29.320312 L 0.28125 29.320312 Z M 0.28125 0.0390625 " clip-rule="nonzero"/></clipPath><clipPath id="63943578df"><path d="M 3.488281 -0.0078125 L 47.792969 6.089844 L 44.597656 29.28125 L 0.296875 23.183594 Z M 3.488281 -0.0078125 " clip-rule="nonzero"/></clipPath><clipPath id="ba32b50f67"><path d="M 4.972656 0.195312 L 46.21875 5.871094 C 47.039062 5.984375 47.613281 6.742188 47.5 7.5625 L 44.71875 27.785156 C 44.605469 28.605469 43.847656 29.179688 43.027344 29.066406 L 1.78125 23.390625 C 0.960938 23.277344 0.386719 22.519531 0.5 21.699219 L 3.285156 1.476562 C 3.398438 0.65625 4.152344 0.0820312 4.972656 0.195312 Z M 4.972656 0.195312 " clip-rule="nonzero"/></clipPath><clipPath id="6200482a75"><rect x="0" width="48" y="0" height="30"/></clipPath></defs><g transform="matrix(1, 0, 0, 1, 0, 567)"><g clip-path="url(#43eb2a38ab)"><g clip-path="url(#47e07c6978)"><path stroke-linecap="round" transform="matrix(1.633314, 0, 0, 1.633314, 0.0000035, 0.453976)" fill="none" stroke-linejoin="miter" d="M 1.499537 1.499018 L 494.42467 1.499018 " stroke="#ffffff" stroke-width="3" stroke-opacity="1" stroke-miterlimit="4"/></g><path stroke-linecap="round" transform="matrix(1.633314, 0.000000000000003916, -0.000000000000003916, 1.633314, 4.616715, 18.080557)" fill="none" stroke-linejoin="miter" d="M 1.499829 1.500442 L 45.916806 1.500442 " stroke="#ffffff" stroke-width="3" stroke-opacity="1" stroke-miterlimit="4"/><path stroke-linecap="round" transform="matrix(1.633314, -0.000000000000002836, 0.000000000000002836, 1.633314, 103.805132, 18.080557)" fill="none" stroke-linejoin="miter" d="M 1.499267 1.500442 L 61.846758 1.500442 " stroke="#ffffff" stroke-width="3" stroke-opacity="1" stroke-miterlimit="4"/><path stroke-linecap="round" transform="matrix(1.633314, 0, 0, 1.633314, 282.553876, 11.627569)" fill="none" stroke-linejoin="miter" d="M 1.500036 1.500358 L 98.917479 1.500358 " stroke="#ffffff" stroke-width="3" stroke-opacity="1" stroke-miterlimit="4"/><path stroke-linecap="round" transform="matrix(1.633314, 0, 0, 1.633314, 245.138722, 31.062529)" fill="none" stroke-linejoin="miter" d="M 1.500704 1.499522 L 61.240726 1.499522 " stroke="#ffffff" stroke-width="3" stroke-opacity="1" stroke-miterlimit="4"/><path stroke-linecap="round" transform="matrix(1.633314, 0, 0, 1.633314, 713.26936, 33.512509)" fill="none" stroke-linejoin="miter" d="M 1.499644 1.499055 L 38.612646 1.499055 " stroke="#ffffff" stroke-width="3" stroke-opacity="1" stroke-miterlimit="4"/><path stroke-linecap="round" transform="matrix(1.633314, 0, 0, 1.633314, 131.460054, 51.968953)" fill="none" stroke-linejoin="miter" d="M 1.50008 1.499415 L 49.640794 1.499415 " stroke="#ffffff" stroke-width="3" stroke-opacity="1" stroke-miterlimit="4"/><path stroke-linecap="round" transform="matrix(1.633314, -0.000000000000018635, 0.000000000000018635, 1.633314, 382.010435, 46.905692)" fill="none" stroke-linejoin="miter" d="M 1.500326 1.499881 L 18.490322 1.499881 " stroke="#ffffff" stroke-width="3" stroke-opacity="1" stroke-miterlimit="4"/><path stroke-linecap="round" transform="matrix(1.633314, 0, 0, 1.633314, 446.567213, 33.512509)" fill="none" stroke-linejoin="miter" d="M 1.499045 1.499055 L 46.339338 1.499055 " stroke="#ffffff" stroke-width="3" stroke-opacity="1" stroke-miterlimit="4"/><path stroke-linecap="round" transform="matrix(1.633314, -0.000000000000003038, 0.000000000000003038, 1.633314, 524.705785, 54.418935)" fill="none" stroke-linejoin="miter" d="M 1.500302 1.498948 L 60.503708 1.498948 " stroke="#ffffff" stroke-width="3" stroke-opacity="1" stroke-miterlimit="4"/><path stroke-linecap="round" transform="matrix(1.633314, 0, 0, 1.633314, 691.107281, 11.627569)" fill="none" stroke-linejoin="miter" d="M 1.500822 1.500358 L 41.055656 1.500358 " stroke="#ffffff" stroke-width="3" stroke-opacity="1" stroke-miterlimit="4"/><path stroke-linecap="round" transform="matrix(1.633314, 0, 0, 1.633314, 491.843523, 72.713426)" fill="none" stroke-linejoin="miter" d="M 1.499678 1.500407 L 44.4219 1.500407 " stroke="#ffffff" stroke-width="3" stroke-opacity="1" stroke-miterlimit="4"/><g clip-path="url(#15b484fe88)"><path stroke-linecap="round" transform="matrix(1.633314, 0.000000000000004973, -0.000000000000004973, 1.633314, 414.659719, 96.37112)" fill="none" stroke-linejoin="miter" d="M 1.499807 1.499523 L 35.838541 1.499523 " stroke="#ffffff" stroke-width="3" stroke-opacity="1" stroke-miterlimit="4"/></g><path stroke-linecap="round" transform="matrix(1.633314, 0, 0, 1.633314, 273.02038, 93.921138)" fill="none" stroke-linejoin="miter" d="M 1.49902 1.499991 L 33.312213 1.499991 " stroke="#ffffff" stroke-width="3" stroke-opacity="1" stroke-miterlimit="4"/><path stroke-linecap="round" transform="matrix(1.633314, -0.000000000000010128, 0.000000000000010128, 1.633314, 188.758192, 91.471158)" fill="none" stroke-linejoin="miter" d="M 1.499307 1.500457 L 16.700379 1.500457 " stroke="#ffffff" stroke-width="3" stroke-opacity="1" stroke-miterlimit="4"/><path stroke-linecap="round" transform="matrix(1.633314, 0, 0, 1.633314, 247.873174, 72.713426)" fill="none" stroke-linejoin="miter" d="M 1.500657 1.500407 L 83.54244 1.500407 " stroke="#ffffff" stroke-width="3" stroke-opacity="1" stroke-miterlimit="4"/></g></g><path stroke-linecap="round" transform="matrix(0.75, 0, 0, 0.75, 63.837255, 567.653967)" fill="none" stroke-linejoin="miter" d="M 2.998244 2.997835 L 861.597245 2.997835 " stroke="#ffffff" stroke-width="6" stroke-opacity="1" stroke-miterlimit="4"/><path stroke-linecap="round" transform="matrix(0.366193, -0.654525, 0.654525, 0.366193, 698.527984, 564.854512)" fill="none" stroke-linejoin="miter" d="M 3.675528 16.503337 C 87.220949 -1.484378 166.467051 -1.501992 241.418918 16.459586 " stroke="#ffffff" stroke-width="6" stroke-opacity="1" stroke-miterlimit="4"/><path stroke-linecap="round" transform="matrix(0.742953, -0.102571, 0.102571, 0.742953, 498.446978, 469.571036)" fill="none" stroke-linejoin="miter" d="M 3.3427 12.826706 C 175.199491 -0.177569 297.02385 -0.272835 368.801012 12.533613 " stroke="#ffffff" stroke-width="6" stroke-opacity="1" stroke-miterlimit="4"/><path stroke-linecap="round" transform="matrix(0, -0.75, 0.75, 0, 795.918059, 414.687071)" fill="none" stroke-linejoin="miter" d="M 2.999428 2.999879 L 34.962972 2.999879 " stroke="#ffffff" stroke-width="6" stroke-opacity="1" stroke-miterlimit="4"/><path stroke-linecap="round" transform="matrix(0.738742, -0.129463, 0.129463, 0.738742, 495.385707, 430.859686)" fill="none" stroke-linejoin="miter" d="M 3.199564 13.763703 C 214.088912 -0.415742 348.669264 -0.583162 406.942417 13.251183 " stroke="#ffffff" stroke-width="6" stroke-opacity="1" stroke-miterlimit="4"/><path stroke-linecap="round" transform="matrix(0.739621, -0.124339, 0.124339, 0.739621, 486.795987, 440.862526)" fill="none" stroke-linejoin="miter" d="M 3.272167 15.006356 C 222.684212 -0.800532 360.12476 -1.00201 415.588675 14.401061 " stroke="#ffffff" stroke-width="6" stroke-opacity="1" stroke-miterlimit="4"/><path stroke-linecap="round" transform="matrix(0.7403, -0.120232, 0.120232, 0.7403, 475.284724, 452.946477)" fill="none" stroke-linejoin="miter" d="M 3.261152 15.01227 C 230.833645 -0.804117 373.344 -1.002659 430.8025 14.418314 " stroke="#ffffff" stroke-width="6" stroke-opacity="1" stroke-miterlimit="4"/><path stroke-linecap="round" transform="matrix(0.737656, -0.135515, 0.135515, 0.737656, 51.186025, 519.257922)" fill="none" stroke-linejoin="miter" d="M 3.660761 3.547822 C 354.526055 72.516986 555.255707 73.129458 605.855782 5.381059 " stroke="#ffffff" stroke-width="6" stroke-opacity="1" stroke-miterlimit="4"/><path stroke-linecap="round" transform="matrix(0.19568, 0.724023, -0.724023, 0.19568, 56.040901, 518.615394)" fill="none" stroke-linejoin="miter" d="M 3.322833 4.483009 C 28.565371 2.532661 50.045523 2.505846 67.754592 4.394818 " stroke="#ffffff" stroke-width="6" stroke-opacity="1" stroke-miterlimit="4"/><path stroke-linecap="round" transform="matrix(0.74909, -0.0369274, 0.0369274, 0.74909, 96.228375, 538.057313)" fill="none" stroke-linejoin="miter" d="M 3.139005 3.128807 C 251.815067 14.141334 417.908205 14.225547 501.418164 3.386647 " stroke="#ffffff" stroke-width="6" stroke-opacity="1" stroke-miterlimit="4"/><path stroke-linecap="round" transform="matrix(0.74941, -0.0297367, 0.0297367, 0.74941, 96.254135, 549.161776)" fill="none" stroke-linejoin="miter" d="M 3.138688 3.124742 C 230.279716 12.742362 396.726426 12.789744 502.473615 3.266681 " stroke="#ffffff" stroke-width="6" stroke-opacity="1" stroke-miterlimit="4"/><path stroke-linecap="round" transform="matrix(0.000000001309, -0.75, 0.75, 0.000000001309, 51.283885, 524.117274)" fill="none" stroke-linejoin="miter" d="M 3.000115 3.001695 L 24.338658 3.001695 " stroke="#ffffff" stroke-width="6" stroke-opacity="1" stroke-miterlimit="4"/><path stroke-linecap="round" transform="matrix(0, -0.75, 0.75, 0, 94.18442, 522.466098)" fill="none" stroke-linejoin="miter" d="M 3.001672 2.998898 L 22.13709 2.998898 " stroke="#ffffff" stroke-width="6" stroke-opacity="1" stroke-miterlimit="4"/><path stroke-linecap="round" transform="matrix(0.75, 0, 0, 0.75, 51.250633, 503.577595)" fill="none" stroke-linejoin="miter" d="M 2.999156 3.000707 L 59.577284 3.000707 " stroke="#ffffff" stroke-width="6" stroke-opacity="1" stroke-miterlimit="4"/><path stroke-linecap="round" transform="matrix(0.75, 0, 0, 0.75, 51.903958, 511.417434)" fill="none" stroke-linejoin="miter" d="M 2.997847 3.000713 L 57.977017 3.000713 " stroke="#ffffff" stroke-width="6" stroke-opacity="1" stroke-miterlimit="4"/><path stroke-linecap="round" transform="matrix(0, 0.75, -0.75, 0, 91.387813, 432.931222)" fill="none" stroke-linejoin="miter" d="M 2.997954 3.00146 L 94.201083 3.00146 " stroke="#ffffff" stroke-width="6" stroke-opacity="1" stroke-miterlimit="4"/><path stroke-linecap="round" transform="matrix(-0.73218, 0.16252, -0.16252, -0.73218, 504.155378, 345.019865)" fill="none" stroke-linejoin="miter" d="M 2.998672 2.997502 L 565.84062 2.998291 " stroke="#ffffff" stroke-width="6" stroke-opacity="1" stroke-miterlimit="4"/><path stroke-linecap="round" transform="matrix(0.00251669, 0.749996, -0.749996, 0.00251669, 505.927994, 342.815247)" fill="none" stroke-linejoin="miter" d="M 3.001921 2.997415 L 126.799479 3.001371 " stroke="#ffffff" stroke-width="6" stroke-opacity="1" stroke-miterlimit="4"/><path stroke-linecap="round" transform="matrix(0.747374, 0.0627027, -0.0627027, 0.747374, 500.144282, 340.580218)" fill="none" stroke-linejoin="miter" d="M 3.001366 3.001584 L 236.694419 3.000464 " stroke="#ffffff" stroke-width="6" stroke-opacity="1" stroke-miterlimit="4"/><path stroke-linecap="round" transform="matrix(0, 0.75, -0.75, 0, 679.383185, 355.793966)" fill="none" stroke-linejoin="miter" d="M 2.99867 3.000497 L 58.930965 3.000497 " stroke="#ffffff" stroke-width="6" stroke-opacity="1" stroke-miterlimit="4"/><path stroke-linecap="round" transform="matrix(0, 0.75, -0.75, 0, 179.337534, 424.042055)" fill="none" stroke-linejoin="miter" d="M 2.001219 2.002129 L 107.871016 2.002129 " stroke="#ffffff" stroke-width="4" stroke-opacity="1" stroke-miterlimit="4"/><path stroke-linecap="round" transform="matrix(0, 0.75, -0.75, 0, 191.270327, 421.362959)" fill="none" stroke-linejoin="miter" d="M 2.00043 2.001061 L 110.630644 2.001061 " stroke="#ffffff" stroke-width="4" stroke-opacity="1" stroke-miterlimit="4"/><path stroke-linecap="round" transform="matrix(0, 0.75, -0.75, 0, 203.342, 418.657151)" fill="none" stroke-linejoin="miter" d="M 1.998799 1.997666 L 113.780054 1.997666 " stroke="#ffffff" stroke-width="4" stroke-opacity="1" stroke-miterlimit="4"/><path stroke-linecap="round" transform="matrix(0, 0.75, -0.75, 0, 215.480997, 415.931495)" fill="none" stroke-linejoin="miter" d="M 1.99759 2.000705 L 116.065304 2.000705 " stroke="#ffffff" stroke-width="4" stroke-opacity="1" stroke-miterlimit="4"/><path stroke-linecap="round" transform="matrix(0.000000001309, 0.75, -0.75, 0.000000001309, 229.446892, 412.798655)" fill="none" stroke-linejoin="miter" d="M 1.997626 2.002106 L 119.377841 2.002106 " stroke="#ffffff" stroke-width="4" stroke-opacity="1" stroke-miterlimit="4"/><path stroke-linecap="round" transform="matrix(0, 0.75, -0.75, 0, 167.975721, 426.592031)" fill="none" stroke-linejoin="miter" d="M 2.002293 1.998879 L 104.90334 1.998879 " stroke="#ffffff" stroke-width="4" stroke-opacity="1" stroke-miterlimit="4"/><path stroke-linecap="round" transform="matrix(0, 0.75, -0.75, 0, 154.722536, 429.565174)" fill="none" stroke-linejoin="miter" d="M 2.001643 1.999839 L 101.402689 1.999839 " stroke="#ffffff" stroke-width="4" stroke-opacity="1" stroke-miterlimit="4"/><path stroke-linecap="round" transform="matrix(0, 0.75, -0.75, 0, 144.330656, 431.892598)" fill="none" stroke-linejoin="miter" d="M 2.002577 1.998167 L 99.143207 1.998167 " stroke="#ffffff" stroke-width="4" stroke-opacity="1" stroke-miterlimit="4"/><path stroke-linecap="round" transform="matrix(0, 0.75, -0.75, 0, 134.378375, 434.125342)" fill="none" stroke-linejoin="miter" d="M 1.999544 1.999292 L 95.733924 1.999292 " stroke="#ffffff" stroke-width="4" stroke-opacity="1" stroke-miterlimit="4"/><path stroke-linecap="round" transform="matrix(0, 0.75, -0.75, 0, 123.214613, 436.632574)" fill="none" stroke-linejoin="miter" d="M 2.000318 1.999692 L 93.260739 1.999692 " stroke="#ffffff" stroke-width="4" stroke-opacity="1" stroke-miterlimit="4"/><path stroke-linecap="round" transform="matrix(0, 0.75, -0.75, 0, 113.971111, 438.70663)" fill="none" stroke-linejoin="miter" d="M 2.000535 1.99794 L 90.932831 1.99794 " stroke="#ffffff" stroke-width="4" stroke-opacity="1" stroke-miterlimit="4"/><path stroke-linecap="round" transform="matrix(-0.00233093, 0.749996, -0.749996, -0.00233093, 103.263104, 441.11491)" fill="none" stroke-linejoin="miter" d="M 1.998848 2.000853 L 89.030522 2.001199 " stroke="#ffffff" stroke-width="4" stroke-opacity="1" stroke-miterlimit="4"/><path stroke-linecap="round" transform="matrix(0, 0.75, -0.75, 0, 242.914122, 409.777679)" fill="none" stroke-linejoin="miter" d="M 1.999553 2.000079 L 122.536017 2.000079 " stroke="#ffffff" stroke-width="4" stroke-opacity="1" stroke-miterlimit="4"/><path stroke-linecap="round" transform="matrix(0, 0.75, -0.75, 0, 257.966007, 406.400304)" fill="none" stroke-linejoin="miter" d="M 1.997512 2.00155 L 126.158977 2.00155 " stroke="#ffffff" stroke-width="4" stroke-opacity="1" stroke-miterlimit="4"/><path stroke-linecap="round" transform="matrix(0.000000001309, 0.75, -0.75, 0.000000001309, 271.517303, 403.361016)" fill="none" stroke-linejoin="miter" d="M 1.997812 2.002238 L 128.398861 2.002238 " stroke="#ffffff" stroke-width="4" stroke-opacity="1" stroke-miterlimit="4"/><path stroke-linecap="round" transform="matrix(0, 0.75, -0.75, 0, 284.755537, 400.393008)" fill="none" stroke-linejoin="miter" d="M 2.002031 2.002175 L 131.121829 2.002175 " stroke="#ffffff" stroke-width="4" stroke-opacity="1" stroke-miterlimit="4"/><path stroke-linecap="round" transform="matrix(0, 0.75, -0.75, 0, 299.926042, 396.986748)" fill="none" stroke-linejoin="miter" d="M 2.002044 2.000348 L 134.361426 2.000348 " stroke="#ffffff" stroke-width="4" stroke-opacity="1" stroke-miterlimit="4"/><path stroke-linecap="round" transform="matrix(0, 0.75, -0.75, 0, 313.450329, 393.952558)" fill="none" stroke-linejoin="miter" d="M 2.000756 2.001481 L 137.974722 2.001481 " stroke="#ffffff" stroke-width="4" stroke-opacity="1" stroke-miterlimit="4"/><path stroke-linecap="round" transform="matrix(0, 0.75, -0.75, 0, 328.32406, 391.23624)" fill="none" stroke-linejoin="miter" d="M 1.997513 1.999788 L 137.023561 1.999788 " stroke="#ffffff" stroke-width="4" stroke-opacity="1" stroke-miterlimit="4"/><path stroke-linecap="round" transform="matrix(0.000000001309, 0.75, -0.75, 0.000000001309, 343.270153, 386.599306)" fill="none" stroke-linejoin="miter" d="M 1.9978 2.000829 L 141.836349 2.000829 " stroke="#ffffff" stroke-width="4" stroke-opacity="1" stroke-miterlimit="4"/><path stroke-linecap="round" transform="matrix(0, 0.75, -0.75, 0, 356.15568, 384.372334)" fill="none" stroke-linejoin="miter" d="M 1.998346 1.99924 L 141.769186 1.99924 " stroke="#ffffff" stroke-width="4" stroke-opacity="1" stroke-miterlimit="4"/><path stroke-linecap="round" transform="matrix(0, 0.75, -0.75, 0, 370.688716, 381.114582)" fill="none" stroke-linejoin="miter" d="M 1.998266 2.001622 L 143.404523 2.001622 " stroke="#ffffff" stroke-width="4" stroke-opacity="1" stroke-miterlimit="4"/><path stroke-linecap="round" transform="matrix(0.000000001309, 0.75, -0.75, 0.000000001309, 387.462142, 377.348643)" fill="none" stroke-linejoin="miter" d="M 1.998684 2.001607 L 145.363274 2.001607 " stroke="#ffffff" stroke-width="4" stroke-opacity="1" stroke-miterlimit="4"/><path stroke-linecap="round" transform="matrix(0, 0.75, -0.75, 0, 403.694719, 373.707277)" fill="none" stroke-linejoin="miter" d="M 1.999672 1.999209 L 146.723638 1.999209 " stroke="#ffffff" stroke-width="4" stroke-opacity="1" stroke-miterlimit="4"/><path stroke-linecap="round" transform="matrix(0.000000001309, 0.75, -0.75, 0.000000001309, 420.742326, 369.882745)" fill="none" stroke-linejoin="miter" d="M 2.00009 2.000185 L 148.33343 2.000185 " stroke="#ffffff" stroke-width="4" stroke-opacity="1" stroke-miterlimit="4"/><path stroke-linecap="round" transform="matrix(0.000000001309, 0.75, -0.75, 0.000000001309, 441.242813, 365.284602)" fill="none" stroke-linejoin="miter" d="M 2.000739 2.000835 L 148.823663 2.000835 " stroke="#ffffff" stroke-width="4" stroke-opacity="1" stroke-miterlimit="4"/><path stroke-linecap="round" transform="matrix(0, 0.75, -0.75, 0, 464.602228, 360.042657)" fill="none" stroke-linejoin="miter" d="M 2.000416 2.000888 L 148.927506 2.000888 " stroke="#ffffff" stroke-width="4" stroke-opacity="1" stroke-miterlimit="4"/><path stroke-linecap="round" transform="matrix(0, 0.75, -0.75, 0, 490.704579, 354.188966)" fill="none" stroke-linejoin="miter" d="M 1.998045 2.001939 L 130.935552 2.001939 " stroke="#ffffff" stroke-width="4" stroke-opacity="1" stroke-miterlimit="4"/><path stroke-linecap="round" transform="matrix(0.000000001309, 0.75, -0.75, 0.000000001309, 329.853385, 312.509623)" fill="none" stroke-linejoin="miter" d="M 2.997587 3.002431 L 91.091341 3.002431 " stroke="#ffffff" stroke-width="6" stroke-opacity="1" stroke-miterlimit="4"/><path stroke-linecap="round" transform="matrix(0, 0.75, -0.75, 0, 389.958001, 310.548199)" fill="none" stroke-linejoin="miter" d="M 2.998235 3.001293 L 77.154489 3.001293 " stroke="#ffffff" stroke-width="6" stroke-opacity="1" stroke-miterlimit="4"/><path stroke-linecap="round" transform="matrix(-0.709132, 0.244195, -0.244195, -0.709132, 360.866909, 305.483705)" fill="none" stroke-linejoin="miter" d="M 2.999295 2.998417 L 45.171629 3.000404 " stroke="#ffffff" stroke-width="6" stroke-opacity="1" stroke-miterlimit="4"/><path stroke-linecap="round" transform="matrix(-0.719498, -0.211712, 0.211712, -0.719498, 388.889574, 315.332349)" fill="none" stroke-linejoin="miter" d="M 2.998627 2.999924 L 43.005405 2.998287 " stroke="#ffffff" stroke-width="6" stroke-opacity="1" stroke-miterlimit="4"/><path stroke-linecap="round" transform="matrix(0, 0.75, -0.75, 0, 331.122906, 288.929566)" fill="none" stroke-linejoin="miter" d="M 2.000162 2.002416 L 30.750163 2.002416 " stroke="#ffffff" stroke-width="4" stroke-opacity="1" stroke-miterlimit="4"/><path stroke-linecap="round" transform="matrix(0.000000001309, 0.75, -0.75, 0.000000001309, 387.961741, 284.991567)" fill="none" stroke-linejoin="miter" d="M 2.000827 2.001071 L 36.006037 2.001071 " stroke="#ffffff" stroke-width="4" stroke-opacity="1" stroke-miterlimit="4"/><path stroke-linecap="round" transform="matrix(-0.688086, 0.298392, -0.298392, -0.688086, 360.768912, 278.398424)" fill="none" stroke-linejoin="miter" d="M 1.997895 2.001774 L 44.014299 1.999299 " stroke="#ffffff" stroke-width="4" stroke-opacity="1" stroke-miterlimit="4"/><path stroke-linecap="round" transform="matrix(-0.711947, -0.235863, 0.235863, -0.711947, 386.650618, 288.081306)" fill="none" stroke-linejoin="miter" d="M 1.998267 1.998025 L 39.183085 2.002107 " stroke="#ffffff" stroke-width="4" stroke-opacity="1" stroke-miterlimit="4"/><path stroke-linecap="round" transform="matrix(-0.693118, 0.286508, -0.286508, -0.693118, 359.258803, 287.758892)" fill="none" stroke-linejoin="miter" d="M 1.998301 1.999814 L 41.358635 1.999379 " stroke="#ffffff" stroke-width="4" stroke-opacity="1" stroke-miterlimit="4"/><path stroke-linecap="round" transform="matrix(-0.714677, -0.227458, 0.227458, -0.714677, 386.89437, 297.234468)" fill="none" stroke-linejoin="miter" d="M 1.99698 1.999053 L 40.705532 1.999216 " stroke="#ffffff" stroke-width="4" stroke-opacity="1" stroke-miterlimit="4"/><path stroke-linecap="round" transform="matrix(0, 0.75, -0.75, 0, 359.866099, 277.228014)" fill="none" stroke-linejoin="miter" d="M 1.998065 1.998549 L 12.383482 1.998549 " stroke="#ffffff" stroke-width="4" stroke-opacity="1" stroke-miterlimit="4"/><path stroke-linecap="round" transform="matrix(0, 0.75, -0.75, 0, 782.446428, 301.515826)" fill="none" stroke-linejoin="miter" d="M 2.999733 3.001488 L 113.817447 3.001488 " stroke="#ffffff" stroke-width="6" stroke-opacity="1" stroke-miterlimit="4"/><path stroke-linecap="round" transform="matrix(-0.728686, 0.177529, -0.177529, -0.728686, 504.649202, 297.413883)" fill="none" stroke-linejoin="miter" d="M 2.001376 1.999056 L 157.578184 2.002005 " stroke="#ffffff" stroke-width="4" stroke-opacity="1" stroke-miterlimit="4"/><path stroke-linecap="round" transform="matrix(-0.741977, -0.109409, 0.109409, -0.741977, 619.705988, 315.046615)" fill="none" stroke-linejoin="miter" d="M 1.999287 2.000231 L 157.322024 1.998245 " stroke="#ffffff" stroke-width="4" stroke-opacity="1" stroke-miterlimit="4"/><path stroke-linecap="round" transform="matrix(-0.00423954, 0.749988, -0.749988, -0.00423954, 619.79498, 312.7648)" fill="none" stroke-linejoin="miter" d="M 2.002031 2.001814 L 52.997627 2.000009 " stroke="#ffffff" stroke-width="4" stroke-opacity="1" stroke-miterlimit="4"/><path stroke-linecap="round" transform="matrix(-0.72448, 0.193981, -0.193981, -0.72448, 503.581202, 285.833941)" fill="none" stroke-linejoin="miter" d="M 1.997835 1.998736 L 158.089811 2.000784 " stroke="#ffffff" stroke-width="4" stroke-opacity="1" stroke-miterlimit="4"/><path stroke-linecap="round" transform="matrix(-0.741816, -0.110497, 0.110497, -0.741816, 606.319125, 301.653725)" fill="none" stroke-linejoin="miter" d="M 2.00235 1.99949 L 140.62426 1.998357 " stroke="#ffffff" stroke-width="4" stroke-opacity="1" stroke-miterlimit="4"/><path stroke-linecap="round" transform="matrix(0, 0.75, -0.75, 0, 607.807005, 291.898013)" fill="none" stroke-linejoin="miter" d="M 2.000566 1.997882 L 25.922442 1.997882 " stroke="#ffffff" stroke-width="4" stroke-opacity="1" stroke-miterlimit="4"/><path stroke-linecap="round" transform="matrix(-0.740896, -0.116503, 0.116503, -0.740896, 607.604925, 294.464624)" fill="none" stroke-linejoin="miter" d="M 2.000846 1.999632 L 141.685953 1.999278 " stroke="#ffffff" stroke-width="4" stroke-opacity="1" stroke-miterlimit="4"/><path stroke-linecap="round" transform="matrix(-0.72818, 0.179593, -0.179593, -0.72818, 503.875706, 277.444693)" fill="none" stroke-linejoin="miter" d="M 2.002071 2.000323 L 126.697596 2.000233 " stroke="#ffffff" stroke-width="4" stroke-opacity="1" stroke-miterlimit="4"/><path stroke-linecap="round" transform="matrix(0, 0.75, -0.75, 0, 412.132399, 297.345123)" fill="none" stroke-linejoin="miter" d="M 1.99817 1.999448 L 14.742962 1.999448 " stroke="#ffffff" stroke-width="4" stroke-opacity="1" stroke-miterlimit="4"/><g clip-path="url(#8a40b33d73)"><g clip-path="url(#061ef4d286)"><g clip-path="url(#bd9bb91348)"><g transform="matrix(1, 0, 0, 1, 542, 491)"><g clip-path="url(#1bab65eabc)"><g clip-path="url(#f8b0b3e84c)"><g clip-path="url(#072ded1e1f)"><g clip-path="url(#401b3c02ef)"><path fill="#ffffff" d="M 0.273438 0.808594 L 8.425781 0.347656 L 9.105469 12.355469 L 0.953125 12.816406 Z M 0.273438 0.808594 " fill-opacity="1" fill-rule="nonzero"/></g></g></g></g></g></g></g></g><g clip-path="url(#883fc20d2e)"><g clip-path="url(#158a3f37ab)"><g clip-path="url(#26c7a1a4ab)"><g transform="matrix(1, 0, 0, 1, 555, 490)"><g clip-path="url(#1d0812e980)"><g clip-path="url(#27d2a01878)"><g clip-path="url(#fb5d2360d9)"><g clip-path="url(#48939679af)"><path fill="#ffffff" d="M 0.339844 0.496094 L 8.496094 0.0351562 L 9.171875 12.042969 L 1.019531 12.503906 Z M 0.339844 0.496094 " fill-opacity="1" fill-rule="nonzero"/></g></g></g></g></g></g></g></g><g clip-path="url(#276295f94b)"><g clip-path="url(#b762d298ca)"><g clip-path="url(#3e28f8e036)"><g transform="matrix(1, 0, 0, 1, 569, 488)"><g clip-path="url(#ee42e0396e)"><g clip-path="url(#c187be84ac)"><g clip-path="url(#b5264a3a63)"><g clip-path="url(#b5b094b959)"><path fill="#ffffff" d="M 0.0742188 1.132812 L 8.226562 0.671875 L 8.90625 12.679688 L 0.75 13.140625 Z M 0.0742188 1.132812 " fill-opacity="1" fill-rule="nonzero"/></g></g></g></g></g></g></g></g><g clip-path="url(#a960042fb7)"><g clip-path="url(#a8e7687b2d)"><g clip-path="url(#21d5a14679)"><g transform="matrix(1, 0, 0, 1, 583, 486)"><g clip-path="url(#7a81e3fcf3)"><g clip-path="url(#ceb01e4f1d)"><g clip-path="url(#f7543f3bfc)"><g clip-path="url(#e6b1577cd1)"><path fill="#ffffff" d="M -0.195312 1.234375 L 7.957031 0.773438 L 8.636719 12.78125 L 0.484375 13.242188 Z M -0.195312 1.234375 " fill-opacity="1" fill-rule="nonzero"/></g></g></g></g></g></g></g></g><g clip-path="url(#77af80d829)"><g clip-path="url(#bc236918d4)"><g clip-path="url(#c758613bf3)"><g transform="matrix(1, 0, 0, 1, 596, 485)"><g clip-path="url(#681b878c08)"><g clip-path="url(#e076b240b1)"><g clip-path="url(#ad852eb750)"><g clip-path="url(#594d150657)"><path fill="#ffffff" d="M 0.539062 0.566406 L 8.691406 0.105469 L 9.371094 12.113281 L 1.214844 12.574219 Z M 0.539062 0.566406 " fill-opacity="1" fill-rule="nonzero"/></g></g></g></g></g></g></g></g><g clip-path="url(#3b77cdf913)"><g clip-path="url(#25c681b975)"><g clip-path="url(#6cbca7bb17)"><g transform="matrix(1, 0, 0, 1, 610, 484)"><g clip-path="url(#981832adda)"><g clip-path="url(#5f12edbb2a)"><g clip-path="url(#fe003f195d)"><g clip-path="url(#9ce8de6c3a)"><path fill="#ffffff" d="M 0.269531 0.253906 L 8.421875 -0.207031 L 9.101562 11.800781 L 0.949219 12.261719 Z M 0.269531 0.253906 " fill-opacity="1" fill-rule="nonzero"/></g></g></g></g></g></g></g></g><g clip-path="url(#ebb0c5e7c6)"><g clip-path="url(#e397647615)"><g clip-path="url(#2048c1c4b4)"><g transform="matrix(1, 0, 0, 1, 624, 481)"><g clip-path="url(#5a5b6d67d8)"><g clip-path="url(#2070440ba3)"><g clip-path="url(#ca2acee63e)"><g clip-path="url(#68f5528e80)"><path fill="#ffffff" d="M 0.00390625 1.089844 L 8.15625 0.628906 L 8.832031 12.636719 L 0.679688 13.097656 Z M 0.00390625 1.089844 " fill-opacity="1" fill-rule="nonzero"/></g></g></g></g></g></g></g></g><g clip-path="url(#fdad648cea)"><g clip-path="url(#47edc3a9cf)"><g clip-path="url(#e581fb816c)"><g transform="matrix(1, 0, 0, 1, 637, 480)"><g clip-path="url(#7ba1a9f3fa)"><g clip-path="url(#90e87db271)"><g clip-path="url(#8135bced5f)"><g clip-path="url(#68f05292f7)"><path fill="#ffffff" d="M 0.734375 0.992188 L 8.886719 0.53125 L 9.566406 12.539062 L 1.414062 13 Z M 0.734375 0.992188 " fill-opacity="1" fill-rule="nonzero"/></g></g></g></g></g></g></g></g><path stroke-linecap="round" transform="matrix(0, -0.75, 0.75, 0, 449.473613, 290.230553)" fill="none" stroke-linejoin="miter" d="M 2.000113 1.998725 L 52.369907 1.998725 " stroke="#ffffff" stroke-width="4" stroke-opacity="1" stroke-miterlimit="4"/><path stroke-linecap="round" transform="matrix(-0.264714, -0.701731, 0.701731, -0.264714, 440.292413, 251.356503)" fill="none" stroke-linejoin="miter" d="M 2.001451 2.002716 L 26.635011 1.999027 " stroke="#ffffff" stroke-width="4" stroke-opacity="1" stroke-miterlimit="4"/><path stroke-linecap="round" transform="matrix(0.322316, -0.677209, 0.677209, 0.322316, 459.264532, 250.170915)" fill="none" stroke-linejoin="miter" d="M 1.999161 1.997647 L 25.239983 1.99957 " stroke="#ffffff" stroke-width="4" stroke-opacity="1" stroke-miterlimit="4"/><path stroke-linecap="round" transform="matrix(0.75, -0.000000000000001395, 0.000000000000001395, 0.75, 439.816709, 248.284256)" fill="none" stroke-linejoin="miter" d="M 1.999596 2.001201 L 27.760014 2.001201 " stroke="#ffffff" stroke-width="4" stroke-opacity="1" stroke-miterlimit="4"/><path stroke-linecap="round" transform="matrix(0.749042, 0.0378946, -0.0378946, 0.749042, 433.670262, 224.845072)" fill="none" stroke-linejoin="miter" d="M 2.809534 8.898899 C 17.696968 -0.302559 32.413744 -0.301348 46.949194 8.897856 " stroke="#ffffff" stroke-width="4" stroke-opacity="1" stroke-miterlimit="4"/><path stroke-linecap="round" transform="matrix(0.749814, 0.016687, -0.016687, 0.749814, 435.381078, 232.438192)" fill="none" stroke-linejoin="miter" d="M 2.799176 7.225046 C 15.668226 0.25991 27.92122 0.258121 39.558275 7.224888 " stroke="#ffffff" stroke-width="4" stroke-opacity="1" stroke-miterlimit="4"/><path stroke-linecap="round" transform="matrix(0.749969, 0.00682394, -0.00682394, 0.749969, 438.174437, 239.476782)" fill="none" stroke-linejoin="miter" d="M 2.828099 6.656543 C 13.511983 0.486163 23.157843 0.445273 31.750104 6.539223 " stroke="#ffffff" stroke-width="4" stroke-opacity="1" stroke-miterlimit="4"/><path stroke-linecap="round" transform="matrix(0, -0.75, 0.75, 0, 505.409978, 277.545738)" fill="none" stroke-linejoin="miter" d="M 1.998484 2.000238 L 73.123488 2.000238 " stroke="#ffffff" stroke-width="4" stroke-opacity="1" stroke-miterlimit="4"/><path stroke-linecap="round" transform="matrix(-0.188772, -0.725855, 0.725855, -0.188772, 496.022619, 223.478373)" fill="none" stroke-linejoin="miter" d="M 2.000587 2.001355 L 30.324218 2.000054 " stroke="#ffffff" stroke-width="4" stroke-opacity="1" stroke-miterlimit="4"/><path stroke-linecap="round" transform="matrix(0.241197, -0.710158, 0.710158, 0.241197, 515.649122, 222.126674)" fill="none" stroke-linejoin="miter" d="M 2.001132 1.998137 L 28.162831 2.00147 " stroke="#ffffff" stroke-width="4" stroke-opacity="1" stroke-miterlimit="4"/><path stroke-linecap="round" transform="matrix(0.75, -0.00000000000000279, 0.00000000000000279, 0.75, 495.564651, 220.16021)" fill="none" stroke-linejoin="miter" d="M 2.002341 1.999929 L 28.267967 1.999929 " stroke="#ffffff" stroke-width="4" stroke-opacity="1" stroke-miterlimit="4"/><path stroke-linecap="round" transform="matrix(0.749449, 0.0287418, -0.0287418, 0.749449, 489.811683, 195.422017)" fill="none" stroke-linejoin="miter" d="M 2.639999 6.835954 C 18.719365 0.444226 32.97766 0.387357 45.414883 6.665345 " stroke="#ffffff" stroke-width="4" stroke-opacity="1" stroke-miterlimit="4"/><path stroke-linecap="round" transform="matrix(0.749952, -0.00848253, 0.00848253, 0.749952, 492.848835, 204.005914)" fill="none" stroke-linejoin="miter" d="M 2.790415 5.513611 C 13.428031 0.774244 24.813545 0.830102 36.952222 5.676034 " stroke="#ffffff" stroke-width="4" stroke-opacity="1" stroke-miterlimit="4"/><path stroke-linecap="round" transform="matrix(0.749873, -0.0138101, 0.0138101, 0.749873, 494.013267, 211.404501)" fill="none" stroke-linejoin="miter" d="M 2.710091 4.625935 C 12.422285 1.111466 22.11642 1.123304 31.792494 4.661449 " stroke="#ffffff" stroke-width="4" stroke-opacity="1" stroke-miterlimit="4"/><g clip-path="url(#1499ce4bec)"><g clip-path="url(#415e109d8d)"><g clip-path="url(#1ccf165e43)"><g transform="matrix(1, 0, 0, 1, 393, 325)"><g clip-path="url(#b6fb715752)"><g clip-path="url(#513b4cc976)"><g clip-path="url(#5edfffe09b)"><g clip-path="url(#8ebb8960ff)"><path fill="#ffffff" d="M 0.0664062 4.335938 L 21.496094 -0.171875 L 26.25 22.429688 L 4.820312 26.9375 Z M 0.0664062 4.335938 " fill-opacity="1" fill-rule="nonzero"/></g></g></g></g></g></g></g></g><g clip-path="url(#c16366ffbd)"><g clip-path="url(#631b99e220)"><g clip-path="url(#964acb29e9)"><g transform="matrix(1, 0, 0, 1, 420, 317)"><g clip-path="url(#7607180c11)"><g clip-path="url(#80c93daac7)"><g clip-path="url(#6736618959)"><g clip-path="url(#91933d124d)"><path fill="#ffffff" d="M -0.101562 5.992188 L 29.617188 -0.257812 L 34.367188 22.316406 L 4.648438 28.570312 Z M -0.101562 5.992188 " fill-opacity="1" fill-rule="nonzero"/></g></g></g></g></g></g></g></g><g clip-path="url(#45e907749a)"><g clip-path="url(#633050b1db)"><g clip-path="url(#c2939e0680)"><g transform="matrix(1, 0, 0, 1, 455, 307)"><g clip-path="url(#a9db5effae)"><g clip-path="url(#0af2cf8bf7)"><g clip-path="url(#4e6e2dac9a)"><g clip-path="url(#22d8abbace)"><path fill="#ffffff" d="M 0.527344 8.105469 L 35.785156 0.6875 L 40.566406 23.421875 L 5.3125 30.839844 Z M 0.527344 8.105469 " fill-opacity="1" fill-rule="nonzero"/></g></g></g></g></g></g></g></g><g clip-path="url(#769cb4a9f8)"><g clip-path="url(#410f21b02f)"><g clip-path="url(#6f2d80c060)"><g transform="matrix(1, 0, 0, 1, 565, 312)"><g clip-path="url(#9589f7139c)"><g clip-path="url(#a8db4e35aa)"><g clip-path="url(#a98607cf55)"><g clip-path="url(#4a430f5419)"><path fill="#ffffff" d="M 3.554688 0.519531 L 46.972656 6.492188 L 43.875 28.996094 L 0.457031 23.019531 Z M 3.554688 0.519531 " fill-opacity="1" fill-rule="nonzero"/></g></g></g></g></g></g></g></g><g clip-path="url(#a619803e58)"><g clip-path="url(#e1df6a4410)"><g clip-path="url(#2a10166762)"><g transform="matrix(1, 0, 0, 1, 509, 305)"><g clip-path="url(#6200482a75)"><g clip-path="url(#c47c97e39a)"><g clip-path="url(#63943578df)"><g clip-path="url(#ba32b50f67)"><path fill="#ffffff" d="M 3.488281 -0.0078125 L 47.699219 6.078125 L 44.507812 29.269531 L 0.296875 23.183594 Z M 3.488281 -0.0078125 " fill-opacity="1" fill-rule="nonzero"/></g></g></g></g></g></g></g></g><path stroke-linecap="round" transform="matrix(0, 0.75, -0.75, 0, 520.463113, 356.57051)" fill="none" stroke-linejoin="miter" d="M 1.999737 1.997693 L 23.489321 1.997693 " stroke="#ffffff" stroke-width="4" stroke-opacity="1" stroke-miterlimit="4"/><path stroke-linecap="round" transform="matrix(0, 0.75, -0.75, 0, 535.330513, 357.064485)" fill="none" stroke-linejoin="miter" d="M 2.002561 1.997975 L 23.492146 1.997975 " stroke="#ffffff" stroke-width="4" stroke-opacity="1" stroke-miterlimit="4"/><path stroke-linecap="round" transform="matrix(0, 0.75, -0.75, 0, 551.257824, 359.006839)" fill="none" stroke-linejoin="miter" d="M 2.001298 2.000015 L 23.490883 2.000015 " stroke="#ffffff" stroke-width="4" stroke-opacity="1" stroke-miterlimit="4"/><path stroke-linecap="round" transform="matrix(0, 0.75, -0.75, 0, 567.185063, 360.172238)" fill="none" stroke-linejoin="miter" d="M 1.999516 2.001959 L 23.489101 2.001959 " stroke="#ffffff" stroke-width="4" stroke-opacity="1" stroke-miterlimit="4"/><path stroke-linecap="round" transform="matrix(0, 0.75, -0.75, 0, 587.38555, 360.949161)" fill="none" stroke-linejoin="miter" d="M 2.000077 1.998442 L 23.489661 1.998442 " stroke="#ffffff" stroke-width="4" stroke-opacity="1" stroke-miterlimit="4"/><path stroke-linecap="round" transform="matrix(0, 0.75, -0.75, 0, 606.032133, 362.114591)" fill="none" stroke-linejoin="miter" d="M 1.998253 2.001177 L 23.493046 2.001177 " stroke="#ffffff" stroke-width="4" stroke-opacity="1" stroke-miterlimit="4"/><path stroke-linecap="round" transform="matrix(0, 0.75, -0.75, 0, 622.736348, 363.668469)" fill="none" stroke-linejoin="miter" d="M 1.999333 1.997423 L 23.488918 1.997423 " stroke="#ffffff" stroke-width="4" stroke-opacity="1" stroke-miterlimit="4"/><path stroke-linecap="round" transform="matrix(0, 0.75, -0.75, 0, 636.721315, 364.833899)" fill="none" stroke-linejoin="miter" d="M 1.997509 1.998212 L 23.492302 1.998212 " stroke="#ffffff" stroke-width="4" stroke-opacity="1" stroke-miterlimit="4"/><path stroke-linecap="round" transform="matrix(0, 0.75, -0.75, 0, 651.483187, 366.387774)" fill="none" stroke-linejoin="miter" d="M 1.998593 1.998416 L 23.493385 1.998416 " stroke="#ffffff" stroke-width="4" stroke-opacity="1" stroke-miterlimit="4"/><path stroke-linecap="round" transform="matrix(0, 0.75, -0.75, 0, 664.691154, 367.553176)" fill="none" stroke-linejoin="miter" d="M 2.002016 1.999664 L 23.4916 1.999664 " stroke="#ffffff" stroke-width="4" stroke-opacity="1" stroke-miterlimit="4"/><path stroke-linecap="round" transform="matrix(0, 0.75, -0.75, 0, 520.201081, 393.953671)" fill="none" stroke-linejoin="miter" d="M 1.999272 2.002484 L 23.488856 2.002484 " stroke="#ffffff" stroke-width="4" stroke-opacity="1" stroke-miterlimit="4"/><path stroke-linecap="round" transform="matrix(0, 0.75, -0.75, 0, 535.068481, 394.447618)" fill="none" stroke-linejoin="miter" d="M 2.002135 1.997558 L 23.491719 1.997558 " stroke="#ffffff" stroke-width="4" stroke-opacity="1" stroke-miterlimit="4"/><path stroke-linecap="round" transform="matrix(0, 0.75, -0.75, 0, 550.995792, 396.39)" fill="none" stroke-linejoin="miter" d="M 2.000833 1.999597 L 23.490418 1.999597 " stroke="#ffffff" stroke-width="4" stroke-opacity="1" stroke-miterlimit="4"/><path stroke-linecap="round" transform="matrix(0, 0.75, -0.75, 0, 566.923103, 397.55543)" fill="none" stroke-linejoin="miter" d="M 1.99901 2.001637 L 23.488594 2.001637 " stroke="#ffffff" stroke-width="4" stroke-opacity="1" stroke-miterlimit="4"/><path stroke-linecap="round" transform="matrix(0, 0.75, -0.75, 0, 587.12347, 398.332354)" fill="none" stroke-linejoin="miter" d="M 1.99957 1.99796 L 23.489155 1.99796 " stroke="#ffffff" stroke-width="4" stroke-opacity="1" stroke-miterlimit="4"/><path stroke-linecap="round" transform="matrix(0, 0.75, -0.75, 0, 605.767533, 399.500333)" fill="none" stroke-linejoin="miter" d="M 1.999556 2.002544 L 20.405807 2.002544 " stroke="#ffffff" stroke-width="4" stroke-opacity="1" stroke-miterlimit="4"/><path stroke-linecap="round" transform="matrix(0.000000001309, 0.75, -0.75, 0.000000001309, 622.476308, 401.049667)" fill="none" stroke-linejoin="miter" d="M 2.001486 1.999661 L 12.704611 1.999661 " stroke="#ffffff" stroke-width="4" stroke-opacity="1" stroke-miterlimit="4"/><path stroke-linecap="round" transform="matrix(0, 0.75, -0.75, 0, 636.460627, 402.215654)" fill="none" stroke-linejoin="miter" d="M 1.99892 1.999587 L 8.082253 1.999587 " stroke="#ffffff" stroke-width="4" stroke-opacity="1" stroke-miterlimit="4"/></svg>